<svg width="26" height="26" viewBox="0 0 26 26" fill="none" xmlns="http://www.w3.org/2000/svg">
<g clip-path="url(#clip0_2730_326)">
<path d="M7 4L8 2.5L9.5 2L10.5 3L11.5 4H12.5L13 5H15L16.5 5.5L17 7V22H10.5H9H5.5H3.5L2 21.5L1 20.5V7L1.5 6L2 5.5L5 5V4.5L7 4Z" fill="currentColor"/>
<path d="M21 13.5L13 21.5V24.5L16 24L17.5 22.5L23.5 16.5L24 15.5L22.5 14L21.5 13.5H21Z" fill="#fff"/>
<path d="M12.3941 25.5C12.2631 25.5 12.1351 25.448 12.0401 25.354C11.9221 25.236 11.8701 25.066 11.9031 24.903L12.6101 21.368C12.6301 21.27 12.6761 21.181 12.7471 21.112L20.5251 13.334C21.1091 12.75 22.0621 12.75 22.6461 13.334L24.0601 14.748C24.6451 15.333 24.6451 16.284 24.0601 16.869L16.2821 24.647C16.2131 24.717 16.1241 24.764 16.0261 24.784L12.4911 25.491C12.4591 25.497 12.4261 25.5 12.3941 25.5ZM13.5621 21.711L13.0321 24.362L15.6831 23.832L23.3541 16.161C23.5491 15.966 23.5491 15.649 23.3541 15.454L21.9401 14.04C21.7451 13.845 21.4281 13.845 21.2331 14.04L13.5621 21.711ZM15.9291 24.293H15.9391H15.9291Z" fill="#fff"/>
<path d="M10 22.5H3C1.621 22.5 0.5 21.379 0.5 20V7C0.5 5.621 1.621 4.5 3 4.5H5C5.276 4.5 5.5 4.724 5.5 5C5.5 5.276 5.276 5.5 5 5.5H3C2.173 5.5 1.5 6.173 1.5 7V20C1.5 20.827 2.173 21.5 3 21.5H10C10.276 21.5 10.5 21.724 10.5 22C10.5 22.276 10.276 22.5 10 22.5Z" fill="#fff"/>
<path d="M17 13.5C16.724 13.5 16.5 13.276 16.5 13V7C16.5 6.173 15.827 5.5 15 5.5H13C12.724 5.5 12.5 5.276 12.5 5C12.5 4.724 12.724 4.5 13 4.5H15C16.379 4.5 17.5 5.621 17.5 7V13C17.5 13.276 17.276 13.5 17 13.5Z" fill="#fff"/>
<path d="M12 7.5H6C5.173 7.5 4.5 6.827 4.5 6V4C4.5 3.724 4.724 3.5 5 3.5H6.55C6.782 2.36 7.793 1.5 9 1.5C10.207 1.5 11.218 2.36 11.45 3.5H13C13.276 3.5 13.5 3.724 13.5 4V6C13.5 6.827 12.827 7.5 12 7.5ZM5.5 4.5V6C5.5 6.275 5.725 6.5 6 6.5H12C12.275 6.5 12.5 6.275 12.5 6V4.5H11C10.724 4.5 10.5 4.276 10.5 4C10.5 3.173 9.827 2.5 9 2.5C8.173 2.5 7.5 3.173 7.5 4C7.5 4.276 7.276 4.5 7 4.5H5.5Z" fill="#fff"/>
<path d="M14 10.5H4C3.724 10.5 3.5 10.276 3.5 10C3.5 9.72402 3.724 9.50002 4 9.50002H14C14.276 9.50002 14.5 9.72402 14.5 10C14.5 10.276 14.276 10.5 14 10.5Z" fill="currentColor"/>
<path d="M14 13.5H4C3.724 13.5 3.5 13.276 3.5 13C3.5 12.724 3.724 12.5 4 12.5H14C14.276 12.5 14.5 12.724 14.5 13C14.5 13.276 14.276 13.5 14 13.5Z" fill="#fff"/>
<path d="M14 16.5H4C3.724 16.5 3.5 16.276 3.5 16C3.5 15.724 3.724 15.5 4 15.5H14C14.276 15.5 14.5 15.724 14.5 16C14.5 16.276 14.276 16.5 14 16.5Z" fill="#fff"/>
</g>
<defs>
<clipPath id="clip0_2730_326">
<rect width="25" height="25" fill="#fff" transform="translate(0.5 0.5)"/>
</clipPath>
</defs>
</svg>
