<svg width="25" height="26" viewBox="0 0 25 26" fill="none" xmlns="http://www.w3.org/2000/svg">
<path d="M10.5 2.5L9 3.5L8 5.5L8.5 12.5L9.5 14.5H14.5L16.5 15.5L17 16.5L19 18L19.5 17V15.5L20 15L22.5 14L23.5 12.5V5.5L23 4L21 2.5H10.5Z" fill="currentColor"/>
<path d="M3 9H7.5V10L8 13L10 14.5L11.5 15H15.5L16.5 15.5L17 17V18.5L15.5 20.5L13 21H9L7 23.5L6 24L5.5 23.5V22L5 21L3.5 20.5L2 19.5L1.5 18.5V13L2 10.5L3 9Z" fill="currentColor"/>
<path d="M20.5568 2.45378C20.5119 2.70056 20.6573 2.95288 20.9011 3.00576C22.2969 3.30862 23.3204 4.66291 23.3204 6.2365V11.126C23.3204 12.9508 21.9628 14.4202 20.3124 14.4202H19.8521C19.601 14.4202 19.4122 14.6396 19.4122 14.8913V16.8271C19.4122 17.1781 19.2036 17.3844 19.0125 17.4629C18.8216 17.5412 18.5478 17.5346 18.3412 17.2768L16.1839 14.5844L16.1839 14.5843C16.1015 14.4817 15.9803 14.4202 15.8501 14.4202H11.3424C9.69201 14.4202 8.33441 12.9508 8.33441 11.126V6.2365C8.33441 4.41171 9.69201 2.94236 11.3424 2.94236H19.6328C19.8838 2.94236 20.0726 2.72294 20.0726 2.47123C20.0726 2.21952 19.8838 2.0001 19.6328 2.0001H11.3424C9.19052 2.0001 7.45473 3.90891 7.45473 6.2365V8.15101H4.68781C2.53593 8.15101 0.800146 10.0598 0.800146 12.3874V16.5347C0.800146 16.7864 0.988915 17.0058 1.23999 17.0058C1.49106 17.0058 1.67983 16.7864 1.67983 16.5347V12.3874C1.67983 10.5626 3.03743 9.09327 4.68781 9.09327H7.45477V11.126C7.45477 13.4536 9.19056 15.3625 11.3424 15.3625H15.6479L16.6658 16.6329V17.277C16.6658 19.1018 15.3082 20.5711 13.6579 20.5711H9.15018C9.01998 20.5711 8.89874 20.6326 8.81638 20.7353L8.81635 20.7353L6.65914 23.4277C6.65913 23.4277 6.65912 23.4277 6.65912 23.4277C6.45237 23.6855 6.17881 23.692 5.98791 23.6137L5.94994 23.7062L5.98791 23.6137C5.79667 23.5352 5.58803 23.3288 5.58803 22.9776V21.0422C5.58803 20.7905 5.39926 20.5711 5.14819 20.5711H4.68781C3.26358 20.5711 2.01839 19.4644 1.7383 17.925L1.7383 17.925C1.69297 17.6764 1.46609 17.4999 1.21916 17.5535L1.21915 17.5535C0.975411 17.6064 0.830022 17.8587 0.874846 18.1054L0.874851 18.1055C1.23302 20.074 2.83181 21.5133 4.68781 21.5133H4.70834V22.9775C4.70834 23.6536 5.08332 24.2516 5.67282 24.4935L5.71078 24.401L5.67283 24.4935C5.84728 24.5651 6.0275 24.6001 6.20591 24.6001C6.62985 24.6001 7.03728 24.4025 7.32666 24.0416L7.32668 24.0416L9.35244 21.5133H13.6579C15.6761 21.5133 17.3277 19.8337 17.5249 17.705L17.6737 17.8907L17.6737 17.8907C17.963 18.2517 18.3703 18.4492 18.7944 18.4492C18.9728 18.4492 19.1531 18.4142 19.3276 18.3426L19.3276 18.3426C19.917 18.1006 20.292 17.5029 20.292 16.8271V15.3624H20.3125C22.4644 15.3624 24.2001 13.4536 24.2001 11.126V6.23645C24.2001 4.22789 22.8922 2.47636 21.076 2.08224L21.0759 2.08224C20.8284 2.02853 20.602 2.20524 20.5568 2.45378ZM20.5568 2.45378L20.6552 2.47168M20.5568 2.45378C20.5568 2.45379 20.5568 2.4538 20.5568 2.4538L20.6552 2.47168M20.6552 2.47168C20.6917 2.27062 20.8702 2.13993 21.0547 2.17997C22.8193 2.56288 24.1001 4.2689 24.1001 6.23645V11.126C24.1001 13.4068 22.401 15.2624 20.3125 15.2624H20.292L7.55473 8.15101V6.2365C7.55473 3.95566 9.25385 2.1001 11.3424 2.1001H19.6328C19.8205 2.1001 19.9726 2.26627 19.9726 2.47123C19.9726 2.67619 19.8205 2.84236 19.6328 2.84236H11.3424C9.62868 2.84236 8.23441 4.36495 8.23441 6.2365V11.126C8.23441 12.9976 9.62868 14.5202 11.3424 14.5202H15.8501C15.9481 14.5202 16.0413 14.5664 16.1059 14.6469L18.2632 17.3394C18.5029 17.6384 18.827 17.6471 19.0504 17.5554C19.2736 17.4637 19.5122 17.2243 19.5122 16.8271V14.8913C19.5122 14.6864 19.6643 14.5202 19.8521 14.5202H20.3124C22.0262 14.5202 23.4204 12.9976 23.4204 11.126V6.2365C23.4204 4.62192 22.3698 3.22211 20.9223 2.90803C20.7382 2.8681 20.6186 2.67273 20.6552 2.47168ZM17.7517 17.8282L17.5361 17.5591L17.7517 17.8282ZM17.7517 17.8282C18.0232 18.1668 18.4024 18.3492 18.7944 18.3492C18.9596 18.3492 19.1271 18.3168 19.2896 18.2501C19.8378 18.0251 20.192 17.4665 20.192 16.8271V15.3624L17.7517 17.8282ZM1.63992 17.9429C1.60326 17.7419 1.42432 17.6113 1.24035 17.6512C1.05629 17.6911 0.936714 17.8865 0.973235 18.0876C1.32386 20.0146 2.88605 21.4133 4.68781 21.4133H4.70834L1.63992 17.9429ZM7.24864 23.979L9.30442 21.4133H13.6579C15.6495 21.4133 17.2862 19.7257 17.4338 17.5913L7.24864 23.979Z" fill="currentColor" stroke="currentColor" stroke-width="0.2"/>
<path d="M8.02261 16.5954V16.572C8.02261 16.3203 7.83384 16.1009 7.58276 16.1009C7.33169 16.1009 7.14292 16.3203 7.14292 16.572V16.5954C7.14292 16.8471 7.33169 17.0665 7.58276 17.0665C7.83384 17.0665 8.02261 16.8471 8.02261 16.5954Z" fill="currentColor" stroke="currentColor" stroke-width="0.2"/>
<path d="M9.22119 17.0665C9.47226 17.0665 9.66103 16.8471 9.66103 16.5954V16.572C9.66103 16.3203 9.47226 16.1009 9.22119 16.1009C8.97012 16.1009 8.78135 16.3203 8.78135 16.572V16.5954C8.78135 16.8471 8.97012 17.0665 9.22119 17.0665Z" fill="currentColor" stroke="currentColor" stroke-width="0.2"/>
<path d="M11.2028 16.5954V16.572C11.2028 16.3203 11.0141 16.1009 10.763 16.1009C10.5119 16.1009 10.3232 16.3203 10.3232 16.572V16.5954C10.3232 16.8471 10.5119 17.0665 10.763 17.0665C11.0141 17.0665 11.2028 16.8471 11.2028 16.5954Z" fill="currentColor" stroke="currentColor" stroke-width="0.2"/>
<path d="M18.0697 7.31249L18.0697 7.3125C18.1018 7.98644 17.8855 8.62878 17.4586 9.11975C17.1341 9.49308 16.7214 9.74072 16.2672 9.83797V10.5418C16.2672 10.7935 16.0784 11.0129 15.8274 11.0129C15.5763 11.0129 15.3875 10.7935 15.3875 10.5418V9.41315C15.3875 9.16144 15.5763 8.94202 15.8274 8.94202C16.2025 8.94202 16.5529 8.77863 16.8148 8.47746C17.0767 8.17626 17.2111 7.78013 17.1912 7.36049L17.1912 7.36049C17.1538 6.57294 16.56 5.95656 15.8556 5.94105L18.0697 7.31249ZM18.0697 7.31249C18.0096 6.04827 17.0521 5.02489 15.8737 4.99898L15.8736 4.99898M18.0697 7.31249L15.8736 4.99898M15.8736 4.99898C14.7296 4.97422 13.759 5.88522 13.6034 7.10252L13.6034 7.10256M15.8736 4.99898L13.6034 7.10256M13.6034 7.10256C13.5892 7.21416 13.582 7.32814 13.582 7.4414M13.6034 7.10256L13.582 7.4414M13.582 7.4414C13.582 7.69311 13.7708 7.91253 14.0219 7.91253M13.582 7.4414L14.0219 7.91253M14.0219 7.91253C14.2729 7.91253 14.4617 7.69311 14.4617 7.4414M14.0219 7.91253L14.4617 7.4414M14.4617 7.4414C14.4617 7.37067 14.4662 7.29959 14.475 7.23036L14.4617 7.4414ZM14.475 7.23034C14.5718 6.47316 15.172 5.92604 15.8556 5.94105L14.475 7.23034Z" fill="currentColor" stroke="currentColor" stroke-width="0.2"/>
<path d="M15.8274 11.5239C15.5763 11.5239 15.3875 11.7433 15.3875 11.995V12.0183C15.3875 12.27 15.5763 12.4894 15.8274 12.4894C16.0785 12.4894 16.2672 12.27 16.2672 12.0183V11.995C16.2672 11.7433 16.0784 11.5239 15.8274 11.5239Z" fill="currentColor" stroke="currentColor" stroke-width="0.2"/>
</svg>
